# xmcd
# 
# Track frame offsets:
#     183
#     14708
#     35085
#     55108
#     71078
#     84630
#     100703
#     116060
#     132618
#     145690
#     155820
#     180525
# 
# Disc length: 2702
# 
# Revision: 5
# Processed by: cddbd v1.5.2PL0 Copyright (c) Steve Scherf et al.
# Submitted via: fre:ac v1.0.31
# 
DISCID=af0a8c0c
DTITLE=Joni Mitchell - Ladies Of The Canyon
DYEAR=1970
DGENRE=Rock/Pop
TTITLE0=Morning Morgantown
TTITLE1=For Free
TTITLE2=Conversation
TTITLE3=Ladies Of The Canyon
TTITLE4=Willy
TTITLE5=The Arrangement
TTITLE6=Rainy Night House
TTITLE7=The Priest
TTITLE8=Blue Boy
TTITLE9=Big Yellow Taxi
TTITLE10=Woodstock
TTITLE11=The Circle Game
EXTD=YEAR: 1970
EXTT0=
EXTT1=
EXTT2=
EXTT3=
EXTT4=
EXTT5=
EXTT6=
EXTT7=
EXTT8=
EXTT9=
EXTT10=
EXTT11=
PLAYORDER=
